<svg id="Group_1323" data-name="Group 1323" xmlns="http://www.w3.org/2000/svg" xmlns:xlink="http://www.w3.org/1999/xlink" width="330.24" height="303.297" viewBox="0 0 330.24 303.297">
  <defs>
    <clipPath id="clip-path">
      <rect id="Rectangle_330" data-name="Rectangle 330" width="330.24" height="303.297" fill="none"/>
    </clipPath>
  </defs>
  <g id="Group_1322" data-name="Group 1322" clip-path="url(#clip-path)">
    <path id="Path_484" data-name="Path 484" d="M74.636,1.734l.77.112c.241.385.673.641.9,1.01a14.171,14.171,0,0,1,.834,2.229c.481,1.155,1.106,2.55,1.6,3.688l.337,1.6c.176.369.609.914.786,1.331a11.112,11.112,0,0,0,.561,1.6,16.389,16.389,0,0,1,1.235,1.6h.225v-.144c.257-.433,0-1.2.321-1.6s.962-.834,1.347-1.235a7.769,7.769,0,0,1,1.235.112,4.823,4.823,0,0,1,.369,2.389c-.962,1.219-.385,3.207-.786,5.147a9.169,9.169,0,0,1-.818,2.518l-1.01.9v2c.16.257,0,.722.224,1.01s.465.273.561.449a11.675,11.675,0,0,1,.561,2.678c.1.417-.144.738-.112,1.01a18.009,18.009,0,0,0,.673,2.229,26.879,26.879,0,0,0,.786,3.207,82.327,82.327,0,0,1,2.79,9.06l.337,2.9c.481,1.924.818,3.993,1.331,5.8l.337,2.582c.433,1.475,1.235,2.967,1.6,4.57.321,1.187,0,2.373.225,3.688a22.413,22.413,0,0,1,.225,3.576v2.694c.16.657.5,1.315.657,2a13.4,13.4,0,0,0,.433,2.453,13.013,13.013,0,0,1,1.235,4.7h.369c.273.545,1.09.657,1.331,1.235s0,.77.337,1.106,1.219.241,1.6.673A3.6,3.6,0,0,1,98.5,85.2c.593,0,1.187.417,1.6.224a8.188,8.188,0,0,0-.112-3.688c-.144-.625,0-1.427-.112-1.6-.5-.593-1.09-.417-1.106-1.6a6.219,6.219,0,0,1,.225-3.464c.241-.577.882-1.026,1.106-1.78.369-1.187.241-2.389.673-3.464a29.309,29.309,0,0,0,1.6-3.127h.417a6.313,6.313,0,0,1,2.117-2.245c.273-.16.593,0,.9-.225.706-.4,1.347-1.3,2.117-1.6s1.267-.128,1.8-.449.609-.754.994-.9a5.315,5.315,0,0,1,2.133-.112c.561,0,1.171-.257,1.443-.224s.625.4.786.449l1.01.112a18.865,18.865,0,0,1,2.117,1.6c.577.385,1.251.593,1.6,1.219l.112.786,1.106,1.122.337,2c.225.738.69,1.6.9,2.245v1.6c.625,2.918-.641,5.661-1.235,7.713-.273.946.337,1.844,0,2.9a8.4,8.4,0,0,0-.657,2.566h.77a15.414,15.414,0,0,0,1.235-2.117c.337-.834.241-1.6.673-2.229.128-.224.433-.417.561-.673s0-.529.224-.786l.882-.9a23.228,23.228,0,0,0,.561-2.79c.513-1.6.914-3.576,1.6-5.244.9-2.325,2.758-3.865,3.688-6.045,1.379-3.207,1.427-7.36,2.566-10.84.577-1.764,1.058-3.752,1.78-5.468a29,29,0,0,0,1.6-3.913c1.058-3.207,1.6-6.414,2.453-9.718.545-2.229-1.09-2.951-1.6-4.249a16.071,16.071,0,0,1-.337-5.26,3.724,3.724,0,0,0,.112-1.331c-.337-1.491-1.283-3.528-.561-5.372a1.5,1.5,0,0,0,.449-.337,3.431,3.431,0,0,1,1.331.224l1.01,1.8c.273.8,0,1.924.337,2.678l.225-.112c.208-.433.593-.8.786-1.219a45.066,45.066,0,0,0,.994-4.811c.385-1.251.834-2.838,1.235-4.025a11.77,11.77,0,0,1,.673-2.341,3.365,3.365,0,0,1,.9-1.01c.208-.112.417,0,.561-.112.529-.722,0-1.411,1.106-1.78a1.313,1.313,0,0,1,.786-.112,5.982,5.982,0,0,1,.112,1.6,2.47,2.47,0,0,0-.112,1.122h.225c.128-.481,1.058-1.363,1.6-.673v2.9a2.55,2.55,0,0,0-.208.9h.208a27.452,27.452,0,0,1-.545,5.131l-.112,1.347c-.529,1.427-1.235,2.854-1.6,4.249-.273.834,0,1.732-.225,2.678s-.369,1.94-.561,2.678l-.112,5.147.112.9c-.257,1.748-.5,3.544-.882,5.244s0,3.592-.337,5.147l-.337,5.58c-.706,2.742-1.379,5.532-2.245,8.162-.289.914-.208,1.6-.545,2.566a47.752,47.752,0,0,0-2.02,5.468l-.112,2.133c-.706,2.886-.754,6.254-1.443,9.269-.369,1.6,0,2.886-.449,4.362-.3,1.155-.818,2.486-1.122,3.576V88.39c-.369,1.3-1.251,2.614-1.684,3.913l-.1,1.459a26.825,26.825,0,0,1-1.219,3.736,63.567,63.567,0,0,1-4.362,7.04c-.321.529,0,1.6-.449,2.341s-1.235.369-1.219,1.6c-.257.417,0,.994-.224,1.6s-.4,1.6-.561,2.245v1.6a10.24,10.24,0,0,1-.337,2.79,41.087,41.087,0,0,1-2.229,6.414,17.1,17.1,0,0,0-1.459,2.918c-.16.706.77,1.235.449,2.229s-1.058,1.427-1.235,2.341a5.9,5.9,0,0,1,.673,1.6l-.112,1.01c.225.754.978,1.491,1.235,2.341a6.942,6.942,0,0,1-1.459,5.693c-.176.273-.657.593-.786.9v1.347a11.109,11.109,0,0,1-.561,1.6c-.321,1.074.561,2.02.786,2.678s-.1,1.6.225,2.357c.144.3.609.609.786.9s0,.641.225,1.106c0,.192.385.5.449.673.257.834-.208,1.6-.224,2.341,1.972.754.754,2.774,1.443,4.474.529,1.3,1.283,2.9,1.8,4.137l.337,2c.128.337.545.593.673.9l.225,1.6c.257.914.641,2.053.882,2.9l.112,1.6c.706,2.437,1.475,5.147,2.133,7.6.257,1.01,0,1.716.337,2.678,0,.208.385.593.433.786.337.994,0,2.357.449,3.464a12.254,12.254,0,0,1,.674,1.459v1.331a30.252,30.252,0,0,0,.786,3.576c.257.673.978,1.155,1.235,1.908s0,2.02.225,2.9c.273,1.187.321,2.646.657,3.913.128.465.641,1.347.449,2a17.618,17.618,0,0,1-1.331,4.025c-.417.722-1.171,1.315-1.6,2.021-1.6,2.838-3.207,5.484-6.7,6.414a8.032,8.032,0,0,1-2.9-.112c-1.122-.273-2.02-.112-3.015-.449a16.815,16.815,0,0,1-3.64-2.117c-.8-.513-2-.754-2.469-1.6-.176-.3,0-.529,0-.786a29.357,29.357,0,0,0-.882-3.015l-.9-1.459v-1.106c-.1-.273-.449-.625-.561-.9-.3-.69-.241-1.3-.561-2-.128-.321-.641-.4-.786-.674v-1.235c-.449-1.155-1.187-2.742-1.6-4.025v-.994c-.112-.369-.433-.77-.561-1.123-.465-1.347-.545-2.63-1.01-4.025s-1.074-3.063-1.6-4.474A21.009,21.009,0,0,0,104.8,184a22.484,22.484,0,0,0-2.71-4.105c-.337-.385-.417-.978-.9-1.219v.112c-.914.289-.722,1.7-.673,2.9-.3.529,0,1.443-.225,2.117-.4,1.6-.529,3.207-.994,4.923-.882,3.079-1.139,6.527-1.908,9.83v1.6l-.337.994c0,.321.529.722.337,1.347,0,.1-.3.353-.337.449-.481,1.459-.273,2.854-.786,4.249a8.985,8.985,0,0,0-.433.882c-.112.625.465,1.058.208,1.8a28.546,28.546,0,0,1-1.6,2.9c-.417.834-.241,2.678-.561,3.207-.4,1.106-1.972,1.844-2.9,2.453-.481.321-.962.818-1.459,1.123-1.3.8-5.709,1.94-7.585,1.347a16.587,16.587,0,0,1-3.367-1.6c-1.235-.85-1.764-2.582-2.566-3.913a26.811,26.811,0,0,1-3.207-5.917c-.144-.465.144-1.026.112-1.347s-.3-1.379-.337-1.892a39.271,39.271,0,0,1,.786-4.923c-.337-.144-.529-.192-.673-.561-1.3-1.6.754-3.207,1.01-4.346-.545-.625.257-2.181,0-3.351a8.913,8.913,0,0,1,0-2.918c0-.192.5-.529.561-.77l-.321-2.55c0-.144.289-.513.337-.657l-.16-1.748a3.031,3.031,0,0,0,.225-1.459,6.837,6.837,0,0,1,.449-3.351l-.112-2.566c.593-2.229.9-4.811,1.331-7.04.128-.657-.433-1.139-.224-1.892a59.82,59.82,0,0,0,1.908-7.264c0-.417-.369-.722-.225-1.235s.625-.946.786-1.331-.225-2.069,0-2.806.5-1.171.657-1.6c.417-1.251.417-2.421.9-3.576,0-.192.4-.481.449-.673l-.112-.786c0-.208.385-.657.449-.9.337-1.2.208-1.972.561-3.207a24.65,24.65,0,0,0,.994-3.015s-.85-3.5-.882-3.576a12.5,12.5,0,0,1-1.122-1.6l-.529-2.373v-1.443c-.69-2.213-2.325-7.088-1.6-10.054v-2.55c.481-2.117.609-4.49,1.106-6.591v-2a27.144,27.144,0,0,1,.225-3.207c.16-1.2-.577-2.967-.225-4.474.577-2.389,1.379-4.634,1.8-7.152a24.163,24.163,0,0,0-1.235-4.586l-.112-1.443c-.369-1.4-.5-2.822-.9-4.474-.321-1.363.144-2.758-.112-3.8-.513-2.181.786-4.025.337-6.029a5.644,5.644,0,0,1,.225-2.133A7.528,7.528,0,0,1,79,72.435c.4-1.716.273-3.768.674-5.468v-1.6a17.412,17.412,0,0,0,.337-2.822V60.1a20.179,20.179,0,0,0,.449-4.907c-.5-2.133-1.2-4.314-1.8-6.414l-.321-2.277c-.5-1.8-.978-3.865-1.459-5.8a16.025,16.025,0,0,1-.112-5.035c0-.353-.208-.625-.112-1.106a8.21,8.21,0,0,0,.112-3.127,14.281,14.281,0,0,1-1.235-3.207,2.632,2.632,0,0,0,.9-1.459c-.69-1.155,0-5.789-.561-7.6-.289-1.074-.609-2.5-.882-3.576a19.188,19.188,0,0,0-.337-2.341c-.818-1.988-1.459-3.961-2.245-6.142A12.74,12.74,0,0,1,71.3,4.075l.545-.112a.98.98,0,0,1,.112-.224,7.421,7.421,0,0,1-.112-2.453h.225a1.605,1.605,0,0,1,.786-.112V.226A1.249,1.249,0,0,1,73.642,0a2.856,2.856,0,0,1,.994,1.732" transform="translate(43.035 0)" fill="#a2aaad" fill-rule="evenodd"/>
    <path id="Path_485" data-name="Path 485" d="M235.442,65.381l-.224-4.137c-.449-1.155-1.026-2.63-1.459-3.8s0-1.908-.882-2.9a1.131,1.131,0,0,0-.561-.112c-1.427-2.79-2.389-6.142-4.025-8.82-1.828-3.015-3.993-5.8-5.917-8.723-.754-1.122-1.187-2.309-1.908-3.464a3.871,3.871,0,0,0-.561-.449l-.112-1.443c-.208-.513-.818-.722-1.106-1.123-.8-1.09-1.443-2.469-2.133-3.576-.417-.69-.577-1.443-.994-2.117a19.5,19.5,0,0,0-4.811-4.923c-1.347-1.026-2.213-2.614-4.474-2.117-.754.16-1.4-.529-2.341-.224-.625.192-1.074.786-1.6.994s-1.6-.625-2.341-.77c-.93.834-1.235.625-1.6,2.117L194.7,19.9a13.593,13.593,0,0,0-2.133,1.122,28.181,28.181,0,0,0-4.346,2.453l-1.6,1.6c-.449.353-.946.625-1.347,1.01s-.641,1.09-1.106,1.459c-2.117,1.6-4.025,3.416-6.158,5.019l-1.6,1.6c-2.245,1.6-4.266,3.56-6.414,5.244-.577.433-1.379,1.86-1.908,2.133H167.4l-.545.673a35.626,35.626,0,0,0-3.031,3.56l-1.6,1.6c-1.764,2.341-4.314,4.506-5.035,7.825l.112.9a20.252,20.252,0,0,1-.112,3.688,19.553,19.553,0,0,0,.337,6.414c.321,1.411,0,2.646.337,4.025.706,2.935.978,5.981,1.908,8.82,1.6,4.811,3.432,9.044,4.682,14.192.257,1.01-.176,2.405,0,3.207a17.647,17.647,0,0,1-.224,6.414c0,1.379,0,2.758-.112,4.137a44.3,44.3,0,0,0-.321,8.611c0,1.94-.3,3.8-.337,5.58a6.061,6.061,0,0,0,.112,2.341c0,1.6-.128,1.812-1.122,2.245a24.538,24.538,0,0,0,.9,4.811,7.347,7.347,0,0,1,.224,2.357c-.657,1.876-1.6,3.063-1.122,5.693l-.112.786c0,.241.369.481.449.674.337.786.241,1.78.673,2.453.208.353.738.706.882,1.122a8.452,8.452,0,0,1-.112,3.8l.112,1.106a9.966,9.966,0,0,1-1.331,3.913c0,1.219,1.86,1.908,3.015,2.021a1.036,1.036,0,0,0,.112.545c-.144.337-.385.417-.673.561-.1.593.321,1.171.224,1.8s-.625.962-.786,1.6a19.274,19.274,0,0,0,0,2.357c-.128.786-.914,1.058-1.106,2l.321,2.9a15.063,15.063,0,0,0,.673,4.474V172a15.166,15.166,0,0,0,.561,1.892c0,.144.385.385.449.561a16.843,16.843,0,0,0,.674,2.79l.9.673v.866c.112.369.513.818.657,1.219s.112,1.042.337,1.6c.321.914,1.026,2,1.347,2.9v.786c.128.353.625.625.786.994A16.108,16.108,0,0,0,171.6,189.5c-.176.706-.93.625-1.443.994a6.293,6.293,0,0,0-1.684,2.582c-.673,1.876-.433,4.282-.9,6.414l-.112,2.566c-.369,1.6-.353,3.207-.77,4.923a20.842,20.842,0,0,0,.337,12.732,15.465,15.465,0,0,0,1.219,2.9c1.6,2.373,5.276,4.811,8.5,2.453,1.6-1.106,2.053-4.41,2.566-6.414.273-1.042,0-2.389.449-3.207a9.175,9.175,0,0,1,.112-2.566c.706.16,1.139.786,1.6,1.122,1.764,1.09,6.719,2.886,9.621,2.117s7.617-3.9,8.6-6.591v-.786a17.824,17.824,0,0,0,.9-2.453l-.112-1.6c0-.208.176-3.592.112-3.8-.337-1.026-.657-2.341-.9-3.464-.128-.609.369-.609.224-1.219-.321-1.459-.722-3.207-1.106-4.586-.176-.625,0-1.491-.337-2v-.337h.225c1.235,3.031,2.325,6.19,3.576,9.269l.208,1.122c.353.85.93,1.844,1.235,2.678v.561c.144.289.625.433.786.786a42.125,42.125,0,0,0,1.892,3.8l.337,1.106c.225.321.8.337,1.122.561l.673.9a29.324,29.324,0,0,0,3.8,2.117l1.6.561h1.347c4.522,1.122,6.414.722,9.493-1.6a4.624,4.624,0,0,0,1.235-.994,15.789,15.789,0,0,0,2.566-5.484,9.5,9.5,0,0,0-.337-3.913l-.112-2c-.337-1.6-.353-2.967-.786-4.474-1.6-5.6-2.389-11.337-3.8-16.982-.754-3.063-1.026-6.045-1.892-8.82l-.225-1.908a.849.849,0,0,0,.112-.561c0-.1-.3-.433-.337-.561l.112-1.219c0-.273-.465-.738-.561-1.01v-.9c-.257-.93-.722-2.213-.994-3.207-.208-.609,0-1.058-.224-1.6a52.6,52.6,0,0,0-3.576-5.6,9.368,9.368,0,0,0-2.967-3.271c.144-.609.625-.738.786-1.219a2.07,2.07,0,0,0-.224-1.347,9.383,9.383,0,0,0-1.6-3.464c-.369-.5-1.4-.93-1.684-1.347-.561-.834-.738-1.78-1.78-2.117a3.447,3.447,0,0,1,.561-1.6c0-1.6-1.507-1.6-1.8-2.453l.112-.337a1.457,1.457,0,0,0-.673-1.219c.192-.754,2.069-2.421,1.347-3.576l-1.122-.673c-.176,0,0-.1,0-.225a3.206,3.206,0,0,0,.673-2.79,13.327,13.327,0,0,1,.786-5.6c.176-.449.625-.946.786-1.443l.112-1.459c.369-1.3,1.026-2.774,1.443-4.025l.449-2c.3-.722.946-1.459,1.235-2.245s0-1.026.224-1.6a32.058,32.058,0,0,1,3.207-7.6c1.491-2.421,3.4-4.554,5.019-6.815a107.536,107.536,0,0,0,8.178-13.069,46.35,46.35,0,0,0,2-4.586c.112-.289.545-.609.674-.9v-.593c.128-.321.545-.577.673-.882l.112-1.122.673-.225c.289-.3,0-.834.225-1.235,0-.1.369-.16.449-.337.257-.674-.257-.962-.112-1.6s.641-.657.77-1.01l-.112-1.106a4.11,4.11,0,0,1,1.058-1.411m-13.855-.369-.673.786v.449c-.385.69-1.267.561-1.443,1.78-.786.16-1.6,2.149-2.133,2.79s-.962,1.074-1.331,1.6l-.449,1.235c-.176.208-.641.176-.786.433v.561a6.125,6.125,0,0,1-.673,1.123l-1.122,1.01a34.654,34.654,0,0,0-2.117,3.351c-.369-.241-.128-.85-.337-1.235s-.866-1.427-1.122-2c-.465-1.106.369-2.133.225-3.015a12.29,12.29,0,0,0-.545-2.245l-1.01-1.01c-.144-.241-.08-.77-.224-.994a2.851,2.851,0,0,0-1.684-.9c-.738-4.057-7.168-5.725-11.61-4.362a23.356,23.356,0,0,0-6.815,4.137c-.289.3-.321.77-.561,1.122a9.216,9.216,0,0,1-.673.882l-.337.112v.786a9.388,9.388,0,0,1-.786,1.122c-3.079.657-5.212,1.106-6.414,3.688a5.813,5.813,0,0,0-.786,2.453h-.449v.641H177.5a22.44,22.44,0,0,0-2-2.453c-.369-.529-.545-1.235-.9-1.8l-.657-.674v-.321c-.112-.257-.481-.545-.561-.786l-.112-1.347c-.289-.722-1.058-1.427-1.235-2.229-.1-.417.337-.353.225-.674l-.449-.337c-.369-.754-.257-1.6-.561-2.341,0-.225-.385-.641-.449-.9l.112-.561c-.16-.625-.754-1.459-.882-2.117l.112-.9c-.16-.449-.77-.625-.9-1.01s.1-.417.112-.561a12.342,12.342,0,0,0-.337-1.331c0-1.78.593-1.122,1.122-2.02.337-.561.337-1.106.657-1.6l.786-.674c.561-.77.818-1.6,1.347-2.341s1.315-1.187,1.6-1.8a7.739,7.739,0,0,1,1.908-2.79c0-.353,0-.273-.224-.449a9.817,9.817,0,0,1,1.6-2.117,41.685,41.685,0,0,1,4.7-5.452l2.181-1.988a15.262,15.262,0,0,1,4.7-4.362c2.1-.754,5.981.561,8.018-.224.818-.321,1.235-1.283,1.892-1.78a22.925,22.925,0,0,1,3.576-2.357c.69,1.6,4.811,3.688,6.414,4.7.545.337,1.8.625,2.02,1.235.08.208-.08.706.112,1.106.353.8,1.122,1.267,1.6,1.908s.5,1.459.9,2.117a52.143,52.143,0,0,1,3.207,5.917,77.757,77.757,0,0,1,2.582,8.162,24.878,24.878,0,0,1,.994,2.79c0,.465-.353.449-.224,1.01a13.844,13.844,0,0,0,.786,1.8v.77c.144.369.529.577.674,1.01s-.241,1.139.112,1.6a.817.817,0,0,1-.561.882c-.192.561-.16.85.144.978Z" transform="translate(94.799 10.485)" fill="#a2aaad" fill-rule="evenodd"/>
    <path id="Path_486" data-name="Path 486" d="M110.295,191.887c-4.025-7.841-9.493-14.031-14.432-20.846-1.3-1.812-2.486-3.624-3.8-5.372-.1-.112-1.283-1.427-1.347-1.443-.337-.192-.561,0-.786-.225-.882-1.235-.273-2.1-2.229-2.582l-.112-.545h-.337l-.112-.112a17.5,17.5,0,0,1,1.347-4.811c.433-1.443-.738-2.037-.337-3.351.257-.866,1.09-1.6,1.347-2.566s-.112-1.828.321-2.582c.128-.208.577-.192.673-.449.3-.722-.192-1.6.112-2.341s1.187-1.251,1.6-1.892l.337-1.122c.417-.962,1.155-2.02,1.6-3.015a18.745,18.745,0,0,0,.674-2.726c.433-1.78.449-3.464.786-4.923.273-1.187-.128-2.758.112-3.8.289-1.283-.369-3.416,0-4.907s.818-3.367,1.219-4.923v-2.213a3.428,3.428,0,0,0,.112-1.459,18.46,18.46,0,0,1-.433-7.376c.369-1.6-.369-3.624.112-5.131l.208-.225c.192-.641-.337-.9-.208-1.347.321-1.267,1.8-1.6,2.341-2.678l.112-.674c.241-.337.738-.433,1.106-.674a5.605,5.605,0,0,0,1.01-1.122,6.612,6.612,0,0,0,.786-.994c.176-.369,0-.529.224-.786s.834-.369,1.122-.673c.77-.834,1.267-2.037,2.229-2.678-.176-.657-.914-1.026-1.347-1.459l-3.384-3.416.673-3.207c.337-1.315.273-2.742.561-4.025L102.5,70.8a22.342,22.342,0,0,0-.225-7.376c-.337-1.6.625-2.822.225-4.249-.112-.369-.449-.8-.561-1.219L101.6,54.75a51.262,51.262,0,0,0-1.6-5.933c-1.267-3.111-2.838-6.061-4.137-9.044a63.022,63.022,0,0,1-2.245-5.917c-.337-.93-.257-1.972-.77-2.694-2.277-3.207-8.018-3.865-10.84-6.591-1.716,0-1.732.641-2.694,1.235-.337.225-.706.16-1.106.337a14.428,14.428,0,0,1-2.357,1.122c-.882.208-.994-.433-1.78-.337a22.545,22.545,0,0,1-5.693,0c-.8-.225-1.748-.69-2.469-.9H64.465c-.353-.16-.657-.657-1.123-.786a5.521,5.521,0,0,0-2.9.561c-1.6.674-3.4,1.6-5.035,2.229a15.55,15.55,0,0,0-2.79,1.01,8.59,8.59,0,0,0-1.6,1.347c-.465.657-.417,1.6-.786,2.341-.77,1.6-1.4,3.207-2.133,4.811s-1.828,3.4-2.678,5.019a53.981,53.981,0,0,0-2.566,8.5c-.3.994-1.6,5.4-1.347,6.591.16.641.625,1.2.786,1.78,0,1.155,0,2.309.112,3.464.529,2.277.85,4.666,1.459,6.815a81.672,81.672,0,0,0,2.229,8.018c.208.513.128.866.449,1.235-.289.85-1.123,1.3-1.6,2-.754,1.2-1.443,3.736-2.453,4.586.128,1.251,3.207,2.854,4.249,3.576l.9,1.01a20.694,20.694,0,0,1,2.453,1.78c.4.417.673.962,1.122,1.347l.77.561c.465.706.224,1.844.561,2.678.208.5.85.882,1.01,1.331v1.347a16.045,16.045,0,0,1-.449,4.362,6.18,6.18,0,0,0,.224,1.219v2.582c.321,1.01.722,2.469,1.01,3.688.369,1.6-.224,2.614.77,3.688,0,.946-.545,1.155-.994,1.6A9.223,9.223,0,0,0,52.214,120a10.8,10.8,0,0,0,.224,4.474c.1.353.481,1.2.337,1.6s-.593.722-.786,1.01c-.465.706-.657,1.491-1.106,2.245a7.376,7.376,0,0,0-1.122,1.6v1.892c-.144.513-.417,1.267-.561,1.892a2.937,2.937,0,0,0,.224,1.347l-.337,2c-.529,1.363-1.507,1.988-2,3.207a21.3,21.3,0,0,1-2.582,5.372c0,2.2-.77,1.026-1.106,2l.112.786h-.3a11.945,11.945,0,0,0-.9,1.892l-.337,1.908c-.353.561-1.187,1.3-1.6,1.892-.208.321,0,.754-.224,1.122l-.337.112c-.818.69-1.491,1.443-2.357,2.117l-.545.786c-.289.208-.674.208-.9.449-1.122,1.139-1.956,2.486-3.015,3.688-.465.513-1.122.914-1.6,1.443-.192.225-.224.834-.449,1.01l-.786.112c-.353.3-.273,1.042-.657,1.347-.754.577-1.3,1.363-2.02,1.892-.192.144-.513.16-.674.337a20.357,20.357,0,0,1-2.838,3.239,12.986,12.986,0,0,0-2.9,2.566,7.7,7.7,0,0,1-2.117-3.576c.16-.208.16-.545.337-.77.465-.625,1.427-.946,1.892-1.6s.786-1.6,1.347-2.341c.529-.337,1.6,0,2-.449s.513-1.026,1.235-1.459a4.3,4.3,0,0,0-1.6-3.351c-3-3.207-7.36-2.341-13.406-2.341-3,0-6.751-.529-8.932.786a4.938,4.938,0,0,0-1.347,5.917A22.653,22.653,0,0,0,3.481,170.3c.657.353,1.6-.176,2.341.337.321.241.433.786.673,1.106A7.824,7.824,0,0,0,9.7,174.216,12.487,12.487,0,0,1,7.827,177.6a20.011,20.011,0,0,0-1.347,4.682,13.756,13.756,0,0,0,.337,4.586,2.208,2.208,0,0,1,.224,1.235,14.691,14.691,0,0,0-.561,5.468c.577,2.357,2.678,6.174,5.035,6.591.625.128,1.2-.529,2.117-.337a9.633,9.633,0,0,0,4.923-.321,121.638,121.638,0,0,0,16.421-9.285c.561-.337,1.122-.433,1.6-.786,2.6-1.6,5.292-3.3,7.922-4.907,1.988-1.219,4.057-1.924,6.158-3.015a57.753,57.753,0,0,1,8.932-3.688,10.976,10.976,0,0,1,4.474-.9,6.833,6.833,0,0,1,2,.9c3.079,1.6,5.2,3.945,7.825,5.917s4.57,4.3,7.152,6.029c1.6,1.042,3.207,1.732,4.811,2.694.69.4,1.219,1.251,1.892,1.6s1.844.417,2.453.786,1.155,1.8,1.908,2.341c-.289.449-2.2.738-2.79,1.01a24.091,24.091,0,0,0-5.372,3.448A8.274,8.274,0,0,0,82.938,203c-.754,1.01-1.6,1.956-2.453,3.015-1.6,2.165-3.64,4.121-5.356,6.254-.3.369-.834.625-1.122,1.01a25.86,25.86,0,0,1-5.885,6.078c-1.8,1.155-5.1-.289-7.376.449l-.112-.225a22.351,22.351,0,0,1,.673-3.207,3.2,3.2,0,0,1-.449-.673l-1.01-.337c-1.411.5-2.277,4.811-2.79,6.591-.978,3.207-.69,6.623-1.6,10.054-.674,2.694-1.09,5.677-1.78,8.5-.241.962,0,1.764-.224,2.79a11.718,11.718,0,0,0-.224,4.025l.9.449c.786-.273.69-1.074,1.219-1.6,0-.1.978.417,1.235.337,1.235-.144.641-.738,1.01-1.78a18.11,18.11,0,0,1,2-2.806l.674-.112a19.274,19.274,0,0,0,1.6-1.443l.337-1.01c.5-.529,1.251-.85,1.8-1.331s.754-.994,1.219-1.347.866-.433,1.122-.786c.625-.818,1.074-1.716,1.6-2.566a43.169,43.169,0,0,1,4.121-4.522A55.99,55.99,0,0,1,85.7,218.3c2.293-1.251,4.811-2.277,7.04-3.464l1.78-.786c2.662-1.6,5.661-3.047,8.387-4.682q.787-.32,1.6-.561c1.956-1.026,3.672-2.63,5.484-3.8.481-.3,1.2-.433,1.6-.673,2.037-4.65.738-8.467-1.3-12.444M83.13,57.46c-1.443-.962-1.988-2.325-4.458-2.341-.112-.9-.609-.513-1.01-1.01-1.6-2.053-5.532-1.09-8.018,0a23.813,23.813,0,0,0-11.225,10.84c-.786,1.924,0,5.532-.994,6.927v.112c-.593-.3-.625-1.171-.9-1.8-.609-1.379-1.09-2.967-1.8-4.346-1.187-2.389-2.935-4.057-3.672-6.927a20.7,20.7,0,0,1,.77-6.27c.4-1.748.128-3.384.561-5.019.657-2.534.85-5.324,1.6-7.825a41.718,41.718,0,0,1,2.037-4.7,11.051,11.051,0,0,0,4.586,0c1.187-.385,2.085-1.171,3.464-1.6.946-.273,3.736-1.09,2.9-2.469-.144-.385-.321-.417-.561-.657-1.331.192-2.325.85-3.688.994v-.433a15.029,15.029,0,0,1,3.207-1.459c.561-.128,1.106.433,1.6.561l1.892.112a18.756,18.756,0,0,0,4.7.786c.225,0,.513-.4.674-.449h1.106a12.393,12.393,0,0,0,2.133-.561c.385-.192.625-.625,1.01-.561,1.01.192,1.443-.321,2.229.449.241.385.1.738.449,1.01l-.112.112a4.212,4.212,0,0,1-2.566-.561c-1.6,0-1.6,0-2.357.77a1.605,1.605,0,0,0,.112.786c.417,1.01,1.716.722,2.9,1.01,1.6.4,2.935,1.155,4.474,1.6l2.133.208c.385,0,.673-.353.994-.208,1.6.722,1.908,5.34,2.469,7.36.673,2.486.946,5.308,1.6,7.938.08,1.155.144,2.309.224,3.464l1.235,5.484c.241.754.69,1.6.882,2.453a12.845,12.845,0,0,1-1.892,4.907l-.112.112c-.385-.641-1.122-1.042-1.459-1.6s-.4-1.2-.77-1.8a19.252,19.252,0,0,0-6.366-5.4" transform="translate(0 14.83)" fill="#a2aaad" fill-rule="evenodd"/>
    <path id="Path_487" data-name="Path 487" d="M190.029,259.414c-.225-.3-.225-.673-.449-.994-.545-.8-1.6-1.235-2.229-1.908a23,23,0,0,1-2.133-2.678l-.994-.9c-.545-.946-.144-2.213-.449-3.464-.208-.834-.385-1.7-.673-2.566s-.8-1.507-1.01-2.229v-1.026a19.885,19.885,0,0,0-1.106-3.688c-1.347-2.694-2.694-5.468-3.913-8.274a22.947,22.947,0,0,1-.9-2.341c-.225-.754,0-1.283-.337-1.892a20.656,20.656,0,0,0-2.678-3.351c0-2.037-.208-4.41-1.235-5.484,0-.994.641-.914.9-1.6a13.694,13.694,0,0,0,.337-1.6l1.106-11.4c.5-1.892.673-4.378,1.347-6.254a47.158,47.158,0,0,0,2.9-17.88c.257,0,.321,0,.449-.112.241-.353-.433-.882-.561-1.235v-1.6a17.128,17.128,0,0,0,0-4.249,19.968,19.968,0,0,1-.449-4.474c.241,0,.224,0,.337.112.882-.16.722-.946,1.122-1.6,0-.337,0-.385-.224-.561s-.176,0-.561-.225a4.91,4.91,0,0,1-1.6-2,21.535,21.535,0,0,1,.225-3.031v-2.117a3.21,3.21,0,0,0,.337-1.892,17.86,17.86,0,0,0-1.122-2.02c0-1.187-.144-2.373-.224-3.576-.144-.433-.706-1.026-.786-1.443s.208-.657.225-1.122a12.528,12.528,0,0,1,0-3.464c.593-1.812,2.053-3.207,2.678-5.147,0-1.106.16-2.229.224-3.351.8-2.935,1.363-6.414,2.133-9.381v-1.812c.722-3.207-.978-6.943,0-10.5.257-.994.722-2.1.994-3.031l.112-.994c.192-.433.722-.93.9-1.347v-.609c.273-.433,1.251-.449,1.6-.882s.257-1.331.545-1.908l.561-.561a24.04,24.04,0,0,0-.4-3.865c-.241-1.2.465-2.55.449-4.025l-1.6-1.6a38.718,38.718,0,0,0-.673-8.387c-.08-1.411-.144-2.822-.225-4.233-.4-1.7-.706-3.592-1.122-5.26l-.112-1.6c-.369-1.6-.641-3.3-.994-4.811-.273-1.106.128-2.261-.224-3.207A76.018,76.018,0,0,0,175.6,58.9c-.706-1.171-1.042-2.437-1.78-3.576-1.6-2.5-3.528-4.811-5.147-7.264-1.94-3.063-4.426-6.19-5.468-10.054a19.448,19.448,0,0,1-.112-5.372L163.2,31.4c-.433-1.3-1.684-2.165-.9-3.8l-.225-.208c-.208-.112-.208,0-.561,0a39.778,39.778,0,0,0-1.6-4.362,3.2,3.2,0,0,1,.112-1.6c0-1.3-.545-1.6-1.01-2.453a2.739,2.739,0,0,1-.786-.225,1.6,1.6,0,0,0-.561.112,25.271,25.271,0,0,1-.225,3.015l-.545.481-.16,1.8c-.353.882-.882,1.94-1.219,2.918l-.225,1.6c-.3.786-.962,1.6-1.235,2.469-.449,1.427-.241,2.886-.786,4.233,0,.241-.433.561-.545.786s-.144.818-.337,1.347c-.706,1.844-1.507,3.72-2.357,5.58a15.645,15.645,0,0,1-1.106,1.6c-.738,1.4-1.09,2.806-1.908,4.121a84.915,84.915,0,0,0-6.414,13.534c-.962,2.518-1.748,5.115-2.453,7.7,0,1.09-.144,2.165-.225,3.207-.657,2.646-.786,5.5-1.459,8.162s-.657,6.655-1.219,9.06c0,1.411,0,2.822-.112,4.233-.834,3.319-4.153,8.355-1.8,11.85.465.69,1.6.674,2.133,1.235s.481,2.037.77,2.678.9.561,1.235,1.01l.337,1.331.337.337c.593,1.491-.914,4.153-1.347,5.035-1.122,2.277-1.219,4.33-1.219,7.809l-.112,2.694a28.378,28.378,0,0,0,.77,4.025,9.543,9.543,0,0,0,.9,1.219,28.879,28.879,0,0,1,1.459,2.9c.449.9,1.732,2.165,1.331,3.688a36.494,36.494,0,0,1-2,4.586,18.185,18.185,0,0,0-.449,2.453c0,1.6,0,3.351-.112,5.035,0,.176-.385.481-.449.673v1.78c0,.3-.369.77-.449,1.01-.225.738.5,1.3.337,1.6s-.208.128-.561.337a3.2,3.2,0,0,0-.77,1.459c-.273.962.225,2.181-.112,3.015l-.786.786a24.293,24.293,0,0,1-2.694,3.416c0,1.732,1.139.994,2,.786.321,5.949-1.988,14.432-.449,20.67.353,1.411.192,4.009.9,5.019,0,2.309-.625,1.86-2.021,2.582,0,.192,0,.1-.112.224.144,2.213,1.732,2.486,2.357,3.784a4.807,4.807,0,0,1-.786,3.8c0,.577.321.529.449.9v1.8c0,1.924-.192,4.955.561,6.142v.449a21.181,21.181,0,0,0-2.469.112,7.738,7.738,0,0,1-4.121.673c-2.694-.641-5.18-1.411-7.825-2.133-1.379-.369-2.854-.1-4.362-.449-1.764-.417-3.688-.545-5.356-.994a4.26,4.26,0,0,0-1.86-.064c-1.122.112-1.828,1.6-2.229,2.453a11.408,11.408,0,0,0-1.235,6.815,23.227,23.227,0,0,1,1.01,3.576A23.3,23.3,0,0,0,104,225.948l-1.86,1.86a22.456,22.456,0,0,0-3.576,8.162v2.02c0,2.373-.112,4.811,1.235,5.917a3.992,3.992,0,0,0,4.57.673,5.86,5.86,0,0,0,1.347-1.6c.385-.529.978-.994,1.347-1.6.529-.85.77-1.732,1.331-2.582a15.6,15.6,0,0,1,3.576-3.464l.449-.657a9.9,9.9,0,0,1,1.6-1.235,24.054,24.054,0,0,1,3.464-1.235c.353-.144.529-.641.882-.786,1.315-.529,2.453-.192,2.918-1.6a3.741,3.741,0,0,0,.433-1.6l5.821.112,3.015,1.01,2.566.337a38.659,38.659,0,0,0,4.362,1.459,8.362,8.362,0,0,0,1.892-.224l1.459.112c.722-.176,1.748-.481,2.566-.673a18.576,18.576,0,0,0,5.372-1.6l.994-1.106c1.459-1.459,3.287-3.047,3.576-5.6a21.032,21.032,0,0,1,.112-3.015c.481-1.6.978-3.207,1.347-4.923a4.82,4.82,0,0,0-.224-1.892l.224-1.908a7.118,7.118,0,0,0-.273-1.732,5.884,5.884,0,0,1,.337-2.229c.192-.9-.273-1.684-.112-2.47,0-.192.3-.69.337-.882s-.176-.5-.225-.674a26.912,26.912,0,0,1,.337-3.207c0-.176.385-.385.449-.561.192-.561-.144-1.363.112-1.8v-1.01c.593.353.128,1.122.337,1.892a5.649,5.649,0,0,1,.337,2.678,2.008,2.008,0,0,0-.225,1.01,8.028,8.028,0,0,1,.433,3.015,7.545,7.545,0,0,0-.433,2.79,9.6,9.6,0,0,1,.337,3.8c-.112.4-.465,1.042-.561,1.459a12.955,12.955,0,0,0,.561,4.362l-.225,1.892a6.559,6.559,0,0,0,.112,1.6c.241.69.882,1.443,1.106,2.229l.112,1.235c.257.786.673,1.812.9,2.678v1.6c.128.433.529,1.026.674,1.459.257.834-.257,1.6,0,2.453,0,.3.465.818.561,1.122l-.112,2c.225.706.978,1.459,1.219,2.133v.786a10.446,10.446,0,0,0,1.01,2.341,19.486,19.486,0,0,1,1.892,2.566l.337,1.6a21.5,21.5,0,0,1,1.01,2.117l.112,1.908c.144.369.529.8.673,1.219.3.914.208,1.748.561,2.566.449,1.122,1.443,2.133,1.78,3.207l.112,1.78a18.259,18.259,0,0,1,.577,4.153v2.678a6.862,6.862,0,0,0,1.01,2.021l.449.321.112,2.357c.545,1.78,1.475,3.127,1.106,5.468.433.433.5.834,1.347.9.337,1.6.625,3.207,1.01,4.923a17.234,17.234,0,0,1,0,2.229c0,.449.433.962.545,1.459v2.678a13.134,13.134,0,0,0,2.021,3.576,5.227,5.227,0,0,0,6.591,1.331,8.322,8.322,0,0,0,3.688-4.682,6.222,6.222,0,0,0-.112-2.245l-.112-1.6a24.817,24.817,0,0,0-1.892-5.26c-.641-1.187-1.106-2.437-1.684-3.8-.16-.369-.577-.77-.337-1.219.433-.8,2.486-.994,3.351-1.459a12.236,12.236,0,0,0,2.341-2.566,10.768,10.768,0,0,0,3.368-6.414c.208-1.283-1.187-2.021-1.732-2.678M168.237,66.441c-1.892,0-2.261-1.074-2.79-2.341a3.013,3.013,0,0,1-2.341-1.122h-.337a1.494,1.494,0,0,0,.9.561.8.8,0,0,1-1.01.337,3.863,3.863,0,0,0-2.9-.112v-.112c-.1-.112,0,0-.112-.224a1.986,1.986,0,0,1,.657-.225V63.09c-1.411-.241-1.074-.978-2.117-1.331s-2-.112-2.566-.449c-.529.433-.481.481-1.347.449l.225.994a20.463,20.463,0,0,1-1.6,2.694c-.16.176-.577.225-.673.449v.77a10.781,10.781,0,0,1-.786,1.235,14.714,14.714,0,0,1-2-.674c-.5-.128-1.106.1-1.459-.112s.4-1.427.561-1.892l.112-1.01c.465-1.443.946-3.079,1.443-4.474l.337-1.892c.641-2.021,1.411-4.282,2.133-6.254.321-.882.257-1.6.561-2.582a71.637,71.637,0,0,1,2.341-6.927,19.563,19.563,0,0,1,1.6-2.229c.385.192.224.353.449.674s.994.754,1.347,1.219a29.324,29.324,0,0,1,2.117,3.8c.9,1.7,1.427,3.688,2.245,5.6,1.074,2.55,2.181,5.083,3.351,7.713.465,1.074,1.2,2.245,1.6,3.351.369.85.417,1.6.786,2.453a6.988,6.988,0,0,1,.786,2,4.805,4.805,0,0,1-1.507-.224" transform="translate(59.487 11.317)" fill="#a2aaad" fill-rule="evenodd"/>
  </g>
</svg>